<svg id="lock" xmlns="http://www.w3.org/2000/svg" width="80.066" height="112.821" viewBox="0 0 80.066 112.821">
  <path id="Path_3" data-name="Path 3" d="M71.134,55.716H20.183A7.279,7.279,0,0,0,12.9,62.994V99.388a7.279,7.279,0,0,0,7.279,7.279H71.134a7.279,7.279,0,0,0,7.279-7.279V62.994A7.279,7.279,0,0,0,71.134,55.716ZM20.183,48.437A14.558,14.558,0,0,0,5.625,62.994V99.388a14.558,14.558,0,0,0,14.558,14.558H71.134A14.558,14.558,0,0,0,85.691,99.388V62.994A14.558,14.558,0,0,0,71.134,48.437Zm0-21.836a25.476,25.476,0,0,1,50.951,0V48.437H63.855V26.6a18.2,18.2,0,0,0-36.394,0V48.437H20.183Z" transform="translate(-5.625 -1.125)" fill="#fff" fill-rule="evenodd"/>
</svg>
